<svg width="137" height="126" viewBox="0 0 137 126" fill="none" xmlns="http://www.w3.org/2000/svg">
<rect width="137" height="126" rx="30" fill="#5353B1"/>
<path d="M89.3501 91.0596C87.1506 91.0596 85.0827 90.2513 83.5274 88.7836L76.8182 82.4525C74.5325 80.2955 72.9896 77.5744 72.3559 74.5833L71.0784 68.5515C70.9305 67.8535 71.1621 67.1321 71.6956 66.6288C72.2289 66.1255 72.9938 65.9073 73.733 66.0465L80.1249 67.2522C83.2947 67.8501 86.1781 69.306 88.464 71.4631L95.1731 77.7943C96.7283 79.2618 97.5848 81.2131 97.5848 83.2887C97.5848 85.3644 96.7283 87.3157 95.1728 88.7834C93.6174 90.2513 91.5495 91.0596 89.3501 91.0596ZM76.166 70.8476L76.7805 73.7486C77.2388 75.9126 78.3552 77.8811 80.0088 79.4415L86.7179 85.7727C87.4209 86.4362 88.3558 86.8016 89.3501 86.8016C90.3444 86.8016 91.2793 86.4362 91.9823 85.7727C92.6853 85.1094 93.0726 84.2271 93.0726 83.2889C93.0726 82.3506 92.6853 81.4683 91.9823 80.805L85.2731 74.4738C83.6195 72.9134 81.5335 71.86 79.2404 71.4274L76.166 70.8476ZM74.9659 88.6364C75.8528 87.8107 75.8624 86.4627 74.9872 85.6257C74.1121 84.7888 72.6835 84.7795 71.7968 85.6056C70.9685 86.377 69.8712 86.8017 68.7073 86.8017C66.2815 86.8017 64.308 84.9395 64.308 82.6503V57.7415C64.308 53.1046 60.3104 49.3322 55.3967 49.3322H48.8539C46.366 49.3322 44.3418 47.422 44.3418 45.0743C44.3418 42.7265 46.366 40.8163 48.8539 40.8163H88.5605C91.0484 40.8163 93.0726 42.7264 93.0726 45.0742C93.0726 47.4219 91.0484 49.3321 88.5605 49.3321H82.0179C77.1042 49.3321 73.1066 53.1045 73.1066 57.7414V60.0833C73.1066 61.2591 74.1166 62.2123 75.3627 62.2123C76.6087 62.2123 77.6188 61.2591 77.6188 60.0833V57.7414C77.6188 55.4522 79.5922 53.59 82.018 53.59H88.5606C93.5366 53.59 97.5848 49.7698 97.5848 45.0742C97.5848 40.3785 93.5364 36.5583 88.5605 36.5583H48.8539C43.8779 36.5583 39.8297 40.3785 39.8297 45.0742C39.8297 49.7698 43.8779 53.59 48.8539 53.59H55.3964C57.8223 53.59 59.7957 55.4522 59.7957 57.7414V82.6502C59.7957 87.2872 63.7933 91.0595 68.7071 91.0595C71.065 91.0596 73.2877 90.1991 74.9659 88.6364Z" fill="white"/>
</svg>
