<svg width="137" height="126" viewBox="0 0 137 126" fill="none" xmlns="http://www.w3.org/2000/svg">
<rect width="137" height="126" rx="30" fill="#5353B1"/>
<path d="M76.2608 81.221C75.6717 81.221 75.0824 81.0095 74.6322 80.5862L46.1049 53.7712C43.4987 51.313 41.7411 48.2152 41.0195 44.8098C41.0174 44.8002 41.0156 44.7906 41.0137 44.781L39.6614 37.9211C39.5224 37.2162 39.7606 36.4918 40.2983 35.9846C40.8359 35.4777 41.6039 35.2526 42.3514 35.3839L49.6244 36.6594C49.6346 36.6613 49.6448 36.663 49.6549 36.665C53.2653 37.3456 56.5499 39.0033 59.1532 41.4589L87.6778 68.2712C88.5803 69.1195 88.5828 70.4973 87.6834 71.3486C86.7839 72.1996 85.3231 72.2021 84.4207 71.3538L55.8933 44.5389C53.937 42.6939 51.4734 41.449 48.7652 40.9355L44.8123 40.2424L45.5471 43.9703C46.0914 46.5249 47.4113 48.8487 49.3649 50.6912L77.8893 77.5037C78.7919 78.3521 78.7943 79.7299 77.8949 80.5811C77.4443 81.0075 76.8525 81.221 76.2608 81.221ZM55.3768 88.514L64.2583 80.135C65.1593 79.285 65.1591 77.9072 64.2579 77.0577C63.3569 76.2079 61.896 76.208 60.9952 77.058L52.114 85.4367C50.315 87.1336 47.3875 87.1336 45.5885 85.4367C44.717 84.6147 44.237 83.5218 44.237 82.3594C44.237 81.197 44.717 80.1039 45.5888 79.2817L54.4124 70.9572C55.3133 70.1072 55.3131 68.7294 54.412 67.8798C53.511 67.0302 52.0501 67.0302 51.1491 67.8801L42.3257 76.2044C40.5827 77.8483 39.6226 80.0342 39.6226 82.3593C39.6226 84.6843 40.5825 86.8701 42.3256 88.5142C44.1247 90.2111 46.4879 91.0594 48.8511 91.0594C51.2143 91.0593 53.5777 90.2109 55.3768 88.514ZM87.0097 58.6708L92.2057 53.7686C94.8091 51.3131 96.5667 48.2151 97.2885 44.8097C97.2906 44.8001 97.2925 44.7905 97.2944 44.7809L98.6465 37.9211C98.7854 37.2161 98.5472 36.4918 98.0096 35.9846C97.472 35.4776 96.7043 35.2528 95.9565 35.3839L88.6835 36.6595C88.6733 36.6614 88.6631 36.6631 88.6531 36.6651C85.0427 37.3457 81.7581 39.0034 79.1545 41.4592L74.0447 46.28C73.1438 47.13 73.144 48.5079 74.0452 49.3574C74.9464 50.2072 76.4071 50.2071 77.3079 49.3571L82.4173 44.5365C84.3709 42.6938 86.8346 41.449 89.543 40.9355L93.4956 40.2425L92.7606 43.9708C92.2162 46.5253 90.8963 48.849 88.9427 50.6916L83.7464 55.5939C82.8454 56.4439 82.8457 57.8218 83.7469 58.6713C84.1973 59.0961 84.7876 59.3084 85.378 59.3084C85.9685 59.3083 86.5591 59.0959 87.0097 58.6708ZM95.9822 88.5142C97.7253 86.8701 98.6852 84.6843 98.6852 82.3593C98.6852 80.0464 97.7352 77.8712 96.0095 76.2302L94.2529 74.4661C93.3807 73.5901 91.9205 73.5469 90.9918 74.3695C90.0629 75.1924 90.0171 76.5694 90.8895 77.4455L92.6689 79.2327C92.6854 79.2493 92.7022 79.2657 92.7194 79.2818C93.5909 80.1038 94.0709 81.1967 94.0709 82.3592C94.0709 83.5217 93.5909 84.6146 92.7194 85.4365C90.9279 87.1261 88.0181 87.1334 86.217 85.4581L84.4647 83.6982C83.5924 82.8222 82.1324 82.779 81.2035 83.6016C80.2746 84.4244 80.2288 85.8015 81.101 86.6776L82.8806 88.465C82.8972 88.4815 82.9139 88.4979 82.9311 88.514C84.7301 90.2109 87.0934 91.0594 89.4566 91.0594C91.8197 91.0595 94.1831 90.211 95.9822 88.5142Z" fill="white"/>
</svg>
