<svg width="76" height="76" viewBox="0 0 76 76" fill="none" xmlns="http://www.w3.org/2000/svg">
<circle cx="38" cy="38" r="38" fill="#222228"/>
<path d="M30.4668 38.4746L37.9348 21L45.4027 38.4746H30.4668Z" fill="#E0F8FF"/>
<path d="M45.4027 38.4746L37.9348 55.9492L30.4668 38.4746H45.4027Z" fill="#BDEBF7"/>
<path d="M52.8705 29.3755L45.4025 38.4746L37.9346 21L52.8705 29.3755Z" fill="#BDEBF7"/>
<path d="M37.9344 21L30.4664 38.4746L23 29.3755L37.9344 21Z" fill="#B4E3F0"/>
<path d="M23 47.5737L30.4664 38.4746L37.9344 55.9492L23 47.5737Z" fill="#B4E3F0"/>
<path d="M52.8705 47.5737L45.4025 38.4746L37.9346 55.9492L52.8705 47.5737Z" fill="#E0F8FF"/>
<path d="M23 29.3755V47.5737L30.4664 38.4746L23 29.3755Z" fill="#A3D0E6"/>
<path d="M52.8703 29.3755L45.4023 38.4746L52.8703 47.5737V29.3755Z" fill="#B4E3F0"/>
</svg>
