<svg width="136" height="126" viewBox="0 0 136 126" fill="none" xmlns="http://www.w3.org/2000/svg">
<rect width="136" height="126" rx="30" fill="#5353B1"/>
<path d="M83.6341 80.519H52.9493C45.4867 80.519 39.4154 74.6624 39.4154 67.4636V49.6159C39.4154 42.416 45.4878 36.5583 52.9517 36.5583H83.6341C91.098 36.5583 97.1704 42.416 97.1704 49.6159V67.4613C97.1704 74.6614 91.098 80.519 83.6341 80.519ZM52.9517 40.9109C47.9757 40.9109 43.9275 44.8159 43.9275 49.6159V67.4636C43.9275 72.2622 47.9748 76.1664 52.9493 76.1664H83.634C88.6099 76.1664 92.6581 72.2613 92.6581 67.4613V49.6159C92.6581 44.8159 88.6099 40.9109 83.634 40.9109H52.9517ZM81.378 87.0477C81.378 85.8458 80.3679 84.8714 79.1219 84.8714H57.4638C56.2178 84.8714 55.2077 85.8458 55.2077 87.0477C55.2077 88.2497 56.2178 89.224 57.4638 89.224H79.122C80.368 89.224 81.378 88.2497 81.378 87.0477ZM60.6223 64.6322C59.3763 64.6322 58.3662 63.6579 58.3662 62.4559V56.3624C58.3662 52.7623 61.4024 49.8335 65.1344 49.8335H71.5642C72.8102 49.8335 73.8203 50.8079 73.8203 52.0098C73.8203 53.2118 72.8102 54.1861 71.5642 54.1861H65.1344C63.8905 54.1861 62.8783 55.1624 62.8783 56.3625V62.456C62.8783 63.6579 61.8684 64.6322 60.6223 64.6322ZM77.446 68.3474C78.3272 67.4974 78.3272 66.1194 77.446 65.2695L70.0011 58.0879C69.1199 57.2379 67.6914 57.2379 66.8104 58.0879C65.9294 58.9378 65.9292 60.3157 66.8104 61.1655L74.2554 68.3472C74.6959 68.7722 75.2733 68.9846 75.8506 68.9846C76.4279 68.9848 77.0054 68.7723 77.446 68.3474Z" fill="white"/>
</svg>
